<svg width="27" height="25" viewBox="0 0 27 25" fill="none" xmlns="http://www.w3.org/2000/svg">
<path d="M26.1098 12.5C26.1098 19.4035 20.4641 25 13.5 25C6.53585 25 0.890198 19.4035 0.890198 12.5C0.890198 5.59644 6.53585 0 13.5 0C20.4641 0 26.1098 5.59644 26.1098 12.5ZM4.3006 12.5C4.3006 17.5365 8.41935 21.6193 13.5 21.6193C18.5806 21.6193 22.6994 17.5365 22.6994 12.5C22.6994 7.46349 18.5806 3.38065 13.5 3.38065C8.41935 3.38065 4.3006 7.46349 4.3006 12.5Z" fill="white"/>
<path d="M13.5184 19.141C17.1791 19.141 20.1467 16.1993 20.1467 12.5705C20.1467 8.94172 17.1791 6 13.5184 6C9.85775 6 6.8902 8.94172 6.8902 12.5705C6.8902 16.1993 9.85775 19.141 13.5184 19.141Z" fill="white"/>
</svg>
