<svg width="25" height="24" viewBox="0 0 25 24" fill="none" xmlns="http://www.w3.org/2000/svg">
<path d="M22.7299 6.76099L19.3599 20.291C19.1199 21.301 18.2199 22.001 17.1799 22.001H4.03993C2.52993 22.001 1.44995 20.5209 1.89995 19.0709L6.10994 5.55103C6.39994 4.61103 7.26996 3.96094 8.24996 3.96094H20.5499C21.4999 3.96094 22.29 4.54094 22.62 5.34094C22.81 5.77094 22.8499 6.26099 22.7299 6.76099Z" stroke="#A3A3A3" stroke-miterlimit="10"/>
<path d="M16.7998 22H21.5798C22.8698 22 23.8798 20.91 23.7898 19.62L22.7998 6" stroke="#A3A3A3" stroke-miterlimit="10" stroke-linecap="round" stroke-linejoin="round"/>
<path d="M10.4795 6.38049L11.5195 2.06055" stroke="#A3A3A3" stroke-miterlimit="10" stroke-linecap="round" stroke-linejoin="round"/>
<path d="M17.1797 6.39075L18.1197 2.05078" stroke="#A3A3A3" stroke-miterlimit="10" stroke-linecap="round" stroke-linejoin="round"/>
<path d="M8.5 12H16.5" stroke="#A3A3A3" stroke-miterlimit="10" stroke-linecap="round" stroke-linejoin="round"/>
<path d="M7.5 16H15.5" stroke="#A3A3A3" stroke-miterlimit="10" stroke-linecap="round" stroke-linejoin="round"/>
</svg>
