<svg width="16" height="17" viewBox="0 0 16 17" fill="none" xmlns="http://www.w3.org/2000/svg">
<path d="M14.6473 12.7207C14.6473 12.9607 14.594 13.2073 14.4806 13.4473C14.3673 13.6873 14.2207 13.914 14.0273 14.1273C13.7007 14.4873 13.3407 14.7473 12.934 14.914C12.534 15.0807 12.1007 15.1673 11.634 15.1673C10.954 15.1673 10.2273 15.0073 9.46065 14.6807C8.69398 14.354 7.92732 13.914 7.16732 13.3607C6.40065 12.8007 5.67398 12.1807 4.98065 11.494C4.29398 10.8007 3.67398 10.074 3.12065 9.31398C2.57398 8.55398 2.13398 7.79398 1.81398 7.04065C1.49398 6.28065 1.33398 5.55398 1.33398 4.86065C1.33398 4.40732 1.41398 3.97398 1.57398 3.57398C1.73398 3.16732 1.98732 2.79398 2.34065 2.46065C2.76732 2.04065 3.23398 1.83398 3.72732 1.83398C3.91398 1.83398 4.10065 1.87398 4.26732 1.95398C4.44065 2.03398 4.59398 2.15398 4.71398 2.32732L6.26065 4.50732C6.38065 4.67398 6.46732 4.82732 6.52732 4.97398C6.58732 5.11398 6.62065 5.25398 6.62065 5.38065C6.62065 5.54065 6.57398 5.70065 6.48065 5.85398C6.39398 6.00732 6.26732 6.16732 6.10732 6.32732L5.60065 6.85398C5.52732 6.92732 5.49398 7.01398 5.49398 7.12065C5.49398 7.17398 5.50065 7.22065 5.51398 7.27398C5.53398 7.32732 5.55398 7.36732 5.56732 7.40732C5.68732 7.62732 5.89398 7.91398 6.18732 8.26065C6.48732 8.60732 6.80732 8.96065 7.15398 9.31398C7.51398 9.66732 7.86065 9.99398 8.21398 10.294C8.56065 10.5873 8.84732 10.7873 9.07398 10.9073C9.10732 10.9207 9.14732 10.9407 9.19398 10.9607C9.24732 10.9807 9.30065 10.9873 9.36065 10.9873C9.47398 10.9873 9.56065 10.9473 9.63398 10.874L10.1407 10.374C10.3073 10.2073 10.4673 10.0807 10.6207 10.0007C10.774 9.90732 10.9273 9.86065 11.094 9.86065C11.2207 9.86065 11.354 9.88732 11.5007 9.94732C11.6473 10.0073 11.8007 10.094 11.9673 10.2073L14.174 11.774C14.3473 11.894 14.4673 12.034 14.5406 12.2007C14.6073 12.3673 14.6473 12.534 14.6473 12.7207Z" stroke="#475569" stroke-miterlimit="10" stroke-linecap="round" stroke-linejoin="round"/>
</svg>
