<svg width="19" height="19" viewBox="0 0 19 19" fill="none" xmlns="http://www.w3.org/2000/svg">
<path d="M17.416 5.14648H12.666" stroke="#334155" stroke-width="1.5" stroke-miterlimit="10" stroke-linecap="round" stroke-linejoin="round"/>
<path d="M4.75065 5.14648H1.58398" stroke="#334155" stroke-width="1.5" stroke-miterlimit="10" stroke-linecap="round" stroke-linejoin="round"/>
<path d="M7.91732 7.91667C9.44761 7.91667 10.6882 6.67612 10.6882 5.14583C10.6882 3.61554 9.44761 2.375 7.91732 2.375C6.38703 2.375 5.14648 3.61554 5.14648 5.14583C5.14648 6.67612 6.38703 7.91667 7.91732 7.91667Z" stroke="#334155" stroke-width="1.5" stroke-miterlimit="10" stroke-linecap="round" stroke-linejoin="round"/>
<path d="M17.4167 13.8535H14.25" stroke="#334155" stroke-width="1.5" stroke-miterlimit="10" stroke-linecap="round" stroke-linejoin="round"/>
<path d="M6.33398 13.8535H1.58398" stroke="#334155" stroke-width="1.5" stroke-miterlimit="10" stroke-linecap="round" stroke-linejoin="round"/>
<path d="M11.0833 16.6257C12.6136 16.6257 13.8542 15.3851 13.8542 13.8548C13.8542 12.3245 12.6136 11.084 11.0833 11.084C9.55304 11.084 8.3125 12.3245 8.3125 13.8548C8.3125 15.3851 9.55304 16.6257 11.0833 16.6257Z" stroke="#334155" stroke-width="1.5" stroke-miterlimit="10" stroke-linecap="round" stroke-linejoin="round"/>
</svg>
