<svg width="22" height="22" viewBox="0 0 22 22" fill="none" xmlns="http://www.w3.org/2000/svg">
<path d="M11.0184 18.8193C8.88252 18.8193 6.74669 18.4801 4.72086 17.8018C3.95086 17.5359 3.36419 16.9951 3.10752 16.2893C2.84169 15.5834 2.93336 14.8043 3.35502 14.1076L4.40919 12.3568C4.62919 11.9901 4.83086 11.2568 4.83086 10.8259V8.17676C4.83086 4.76676 7.60836 1.98926 11.0184 1.98926C14.4284 1.98926 17.2059 4.76676 17.2059 8.17676V10.8259C17.2059 11.2476 17.4075 11.9901 17.6275 12.3659L18.6725 14.1076C19.0667 14.7676 19.14 15.5651 18.8742 16.2893C18.6084 17.0134 18.0309 17.5634 17.3067 17.8018C15.29 18.4801 13.1542 18.8193 11.0184 18.8193ZM11.0184 3.36426C8.36919 3.36426 6.20586 5.51843 6.20586 8.17676V10.8259C6.20586 11.4951 5.93086 12.4851 5.59169 13.0626L4.53752 14.8134C4.33586 15.1526 4.28086 15.5101 4.40002 15.8126C4.51002 16.1243 4.78502 16.3626 5.16086 16.4909C8.99252 17.7743 13.0534 17.7743 16.885 16.4909C17.215 16.3809 17.4717 16.1334 17.5909 15.8034C17.71 15.4734 17.6825 15.1159 17.4992 14.8134L16.445 13.0626C16.0967 12.4668 15.8309 11.4859 15.8309 10.8168V8.17676C15.8309 5.51843 13.6767 3.36426 11.0184 3.36426Z" fill="black"/>
<path d="M12.7234 3.61203C12.6592 3.61203 12.595 3.60287 12.5309 3.58453C12.265 3.5112 12.0084 3.4562 11.7609 3.41953C10.9817 3.3187 10.23 3.3737 9.52419 3.58453C9.26752 3.66703 8.99252 3.58453 8.81836 3.39203C8.64419 3.19953 8.58919 2.92453 8.69002 2.67703C9.06586 1.71453 9.98252 1.08203 11.0275 1.08203C12.0725 1.08203 12.9892 1.70536 13.365 2.67703C13.4567 2.92453 13.4109 3.19953 13.2367 3.39203C13.0992 3.5387 12.9067 3.61203 12.7234 3.61203Z" fill="black"/>
<path d="M11.0183 20.9092C10.1108 20.9092 9.23081 20.5425 8.58914 19.9008C7.94748 19.2592 7.58081 18.3792 7.58081 17.4717H8.95581C8.95581 18.0125 9.17581 18.5442 9.56081 18.9292C9.94581 19.3142 10.4775 19.5342 11.0183 19.5342C12.155 19.5342 13.0808 18.6083 13.0808 17.4717H14.4558C14.4558 19.3692 12.9158 20.9092 11.0183 20.9092Z" fill="black"/>
</svg>
