<svg width="25" height="24" viewBox="0 0 25 24" fill="none" xmlns="http://www.w3.org/2000/svg">
<path d="M12.559 10.87C12.459 10.86 12.339 10.86 12.229 10.87C9.84898 10.79 7.95898 8.84 7.95898 6.44C7.95898 3.99 9.93898 2 12.399 2C14.849 2 16.839 3.99 16.839 6.44C16.829 8.84 14.939 10.79 12.559 10.87Z" stroke="#A3A3A3" stroke-linecap="round" stroke-linejoin="round"/>
<path d="M7.55914 14.56C5.13914 16.18 5.13914 18.82 7.55914 20.43C10.3091 22.27 14.8191 22.27 17.5691 20.43C19.9891 18.81 19.9891 16.17 17.5691 14.56C14.8291 12.73 10.3191 12.73 7.55914 14.56Z" stroke="#A3A3A3" stroke-linecap="round" stroke-linejoin="round"/>
</svg>
