<svg width="25" height="24" viewBox="0 0 25 24" fill="none" xmlns="http://www.w3.org/2000/svg">
<path d="M22.1992 16.7397V4.6697C22.1992 3.4697 21.2192 2.5797 20.0292 2.6797H19.9692C17.8692 2.8597 14.6792 3.9297 12.8992 5.0497L12.7292 5.1597C12.4392 5.3397 11.9592 5.3397 11.6692 5.1597L11.4192 5.0097C9.63922 3.8997 6.45922 2.8397 4.35922 2.6697C3.16922 2.5697 2.19922 3.4697 2.19922 4.6597V16.7397C2.19922 17.6997 2.97922 18.5997 3.93922 18.7197L4.22922 18.7597C6.39922 19.0497 9.74922 20.1497 11.6692 21.1997L11.7092 21.2197C11.9792 21.3697 12.4092 21.3697 12.6692 21.2197C14.5892 20.1597 17.9492 19.0497 20.1292 18.7597L20.4592 18.7197C21.4192 18.5997 22.1992 17.6997 22.1992 16.7397Z" stroke="#A3A3A3" stroke-linecap="round" stroke-linejoin="round"/>
<path d="M12.1992 5.49023V20.4902" stroke="#A3A3A3" stroke-linecap="round" stroke-linejoin="round"/>
<path d="M7.94922 8.49023H5.69922" stroke="#A3A3A3" stroke-linecap="round" stroke-linejoin="round"/>
<path d="M8.69922 11.4902H5.69922" stroke="#A3A3A3" stroke-linecap="round" stroke-linejoin="round"/>
</svg>
