<svg width="22" height="22" viewBox="0 0 22 22" fill="none" xmlns="http://www.w3.org/2000/svg">
<path d="M11 14.4375C9.1025 14.4375 7.5625 12.8975 7.5625 11C7.5625 9.1025 9.1025 7.5625 11 7.5625C12.8975 7.5625 14.4375 9.1025 14.4375 11C14.4375 12.8975 12.8975 14.4375 11 14.4375ZM11 8.9375C9.86333 8.9375 8.9375 9.86333 8.9375 11C8.9375 12.1367 9.86333 13.0625 11 13.0625C12.1367 13.0625 13.0625 12.1367 13.0625 11C13.0625 9.86333 12.1367 8.9375 11 8.9375Z" fill="black"/>
<path d="M13.9425 20.3408C13.75 20.3408 13.5575 20.3133 13.365 20.2674C12.7966 20.1116 12.32 19.7541 12.0175 19.2499L11.9075 19.0666C11.3666 18.1316 10.6241 18.1316 10.0833 19.0666L9.98248 19.2408C9.67998 19.7541 9.20331 20.1208 8.63498 20.2674C8.05748 20.4233 7.46165 20.3408 6.95748 20.0383L5.38081 19.1308C4.82165 18.8099 4.41831 18.2874 4.24415 17.6549C4.07915 17.0224 4.16165 16.3716 4.48248 15.8124C4.74831 15.3449 4.82165 14.9233 4.66581 14.6574C4.50998 14.3916 4.11581 14.2358 3.57498 14.2358C2.23665 14.2358 1.14581 13.1449 1.14581 11.8066V10.1933C1.14581 8.85494 2.23665 7.7641 3.57498 7.7641C4.11581 7.7641 4.50998 7.60827 4.66581 7.34244C4.82165 7.0766 4.75748 6.65494 4.48248 6.18744C4.16165 5.62827 4.07915 4.96827 4.24415 4.34494C4.40915 3.71244 4.81248 3.18994 5.38081 2.8691L6.96665 1.9616C8.00248 1.34744 9.36831 1.70494 9.99164 2.7591L10.1016 2.94244C10.6425 3.87744 11.385 3.87744 11.9258 2.94244L12.0266 2.76827C12.65 1.70494 14.0158 1.34744 15.0608 1.97077L16.6375 2.87827C17.1966 3.1991 17.6 3.7216 17.7741 4.3541C17.9391 4.9866 17.8566 5.63744 17.5358 6.1966C17.27 6.6641 17.1966 7.08577 17.3525 7.3516C17.5083 7.61744 17.9025 7.77327 18.4433 7.77327C19.7816 7.77327 20.8725 8.8641 20.8725 10.2024V11.8158C20.8725 13.1541 19.7816 14.2449 18.4433 14.2449C17.9025 14.2449 17.5083 14.4008 17.3525 14.6666C17.1966 14.9324 17.2608 15.3541 17.5358 15.8216C17.8566 16.3808 17.9483 17.0408 17.7741 17.6641C17.6091 18.2966 17.2058 18.8191 16.6375 19.1399L15.0516 20.0474C14.7033 20.2399 14.3275 20.3408 13.9425 20.3408ZM11 16.9491C11.8158 16.9491 12.5766 17.4624 13.0991 18.3699L13.2 18.5441C13.31 18.7366 13.4933 18.8741 13.7133 18.9291C13.9333 18.9841 14.1533 18.9566 14.3366 18.8466L15.9225 17.9299C16.1608 17.7924 16.3441 17.5633 16.4175 17.2883C16.4908 17.0133 16.4541 16.7291 16.3166 16.4908C15.7941 15.5924 15.73 14.6666 16.1333 13.9608C16.5366 13.2549 17.3708 12.8516 18.4158 12.8516C19.0025 12.8516 19.47 12.3841 19.47 11.7974V10.1841C19.47 9.6066 19.0025 9.12994 18.4158 9.12994C17.3708 9.12994 16.5366 8.7266 16.1333 8.02077C15.73 7.31494 15.7941 6.3891 16.3166 5.49077C16.4541 5.25244 16.4908 4.96827 16.4175 4.69327C16.3441 4.41827 16.17 4.19827 15.9316 4.0516L14.3458 3.1441C13.9516 2.90577 13.4291 3.04327 13.1908 3.4466L13.09 3.62077C12.5675 4.52827 11.8066 5.0416 10.9908 5.0416C10.175 5.0416 9.41415 4.52827 8.89165 3.62077L8.79081 3.43744C8.56165 3.05244 8.04831 2.91494 7.65415 3.1441L6.06831 4.06077C5.82998 4.19827 5.64665 4.42744 5.57331 4.70244C5.49998 4.97744 5.53665 5.2616 5.67415 5.49994C6.19665 6.39827 6.26081 7.3241 5.85748 8.02994C5.45415 8.73577 4.61998 9.1391 3.57498 9.1391C2.98831 9.1391 2.52081 9.6066 2.52081 10.1933V11.8066C2.52081 12.3841 2.98831 12.8608 3.57498 12.8608C4.61998 12.8608 5.45415 13.2641 5.85748 13.9699C6.26081 14.6758 6.19665 15.6016 5.67415 16.4999C5.53665 16.7383 5.49998 17.0224 5.57331 17.2974C5.64665 17.5724 5.82081 17.7924 6.05915 17.9391L7.64498 18.8466C7.83748 18.9658 8.06665 18.9933 8.27748 18.9383C8.49748 18.8833 8.68081 18.7366 8.79998 18.5441L8.90081 18.3699C9.42331 17.4716 10.1841 16.9491 11 16.9491Z" fill="black"/>
</svg>
