<svg width="24" height="24" viewBox="0 0 24 24" fill="none" xmlns="http://www.w3.org/2000/svg">
<g clip-path="url(#clip0_17_2591)">
<path d="M11.002 11.9998C11.002 12.265 11.1073 12.5193 11.2948 12.7069C11.4824 12.8944 11.7367 12.9998 12.002 12.9998C12.2672 12.9998 12.5215 12.8944 12.7091 12.7069C12.8966 12.5193 13.002 12.265 13.002 11.9998C13.002 11.7345 12.8966 11.4802 12.7091 11.2926C12.5215 11.1051 12.2672 10.9998 12.002 10.9998C11.7367 10.9998 11.4824 11.1051 11.2948 11.2926C11.1073 11.4802 11.002 11.7345 11.002 11.9998Z" stroke="black" stroke-width="2" stroke-linecap="round" stroke-linejoin="round"/>
<path d="M11.002 19C11.002 19.2652 11.1073 19.5196 11.2948 19.7071C11.4824 19.8946 11.7367 20 12.002 20C12.2672 20 12.5215 19.8946 12.7091 19.7071C12.8966 19.5196 13.002 19.2652 13.002 19C13.002 18.7348 12.8966 18.4804 12.7091 18.2929C12.5215 18.1054 12.2672 18 12.002 18C11.7367 18 11.4824 18.1054 11.2948 18.2929C11.1073 18.4804 11.002 18.7348 11.002 19Z" stroke="black" stroke-width="2" stroke-linecap="round" stroke-linejoin="round"/>
<path d="M11.002 5.00024C11.002 5.26546 11.1073 5.51981 11.2948 5.70735C11.4824 5.89489 11.7367 6.00024 12.002 6.00024C12.2672 6.00024 12.5215 5.89489 12.7091 5.70735C12.8966 5.51981 13.002 5.26546 13.002 5.00024C13.002 4.73503 12.8966 4.48067 12.7091 4.29314C12.5215 4.1056 12.2672 4.00024 12.002 4.00024C11.7367 4.00024 11.4824 4.1056 11.2948 4.29314C11.1073 4.48067 11.002 4.73503 11.002 5.00024Z" stroke="black" stroke-width="2" stroke-linecap="round" stroke-linejoin="round"/>
</g>
<defs>
<clipPath id="clip0_17_2591">
<rect width="24" height="24" fill="white"/>
</clipPath>
</defs>
</svg>
